<svg viewBox="0 0 256 256" xmlns="http://www.w3.org/2000/svg">
  <defs>
    <linearGradient id="pythonBlue" x1="0%" y1="0%" x2="100%" y2="100%">
      <stop offset="0%" style="stop-color:#4584b6"/>
      <stop offset="100%" style="stop-color:#366A96"/>
    </linearGradient>
    <linearGradient id="pythonYellow" x1="0%" y1="0%" x2="100%" y2="100%">
      <stop offset="0%" style="stop-color:#ffde57"/>
      <stop offset="100%" style="stop-color:#FFD43B"/>
    </linearGradient>
  </defs>
  
  <!-- Bottom snake -->
  <path d="M128 30c-64.9 0-60.8 28.1-60.8 28.1v29.1h61.9v8.7H40.7s-40.7-4.6-40.7 59.6c0 64.2 35.5 61.9 35.5 61.9h21.2v-29.8s-1.1-35.5 35-35.5h60.2s33.8.6 33.8-32.7V67.1s5.1-37.1-57.7-37.1z" fill="url(#pythonBlue)"/>
  
  <!-- Top snake -->
  <path d="M128 226c64.9 0 60.8-28.1 60.8-28.1v-29.1h-61.9v-8.7h88.4s40.7 4.6 40.7-59.6c0-64.2-35.5-61.9-35.5-61.9h-21.2v29.8s1.1 35.5-35 35.5h-60.2s-33.8-.6-33.8 32.7v52.3s-5.1 37.1 57.7 37.1z" fill="url(#pythonYellow)"/>
  
  <!-- Eyes with highlights -->
  <circle cx="85" cy="85" r="8" fill="white"/>
  <circle cx="85" cy="85" r="4" fill="#333"/>
  <circle cx="83" cy="83" r="2" fill="white"/>
  
  <circle cx="171" cy="171" r="8" fill="white"/>
  <circle cx="171" cy="171" r="4" fill="#333"/>
  <circle cx="169" cy="169" r="2" fill="white"/>
</svg>