<svg viewBox="0 0 256 256" xmlns="http://www.w3.org/2000/svg">
  <defs>
    <linearGradient id="sprintGradient" x1="0%" y1="0%" x2="100%" y2="100%">
      <stop offset="0%" style="stop-color:#6C5CE7"/>
      <stop offset="100%" style="stop-color:#5541D8"/>
    </linearGradient>
    <filter id="softShadow" x="-20%" y="-20%" width="140%" height="140%">
      <feGaussianBlur in="SourceAlpha" stdDeviation="3"/>
      <feOffset dx="2" dy="2" result="offsetblur"/>
      <feComponentTransfer>
        <feFuncA type="linear" slope="0.3"/>
      </feComponentTransfer>
      <feMerge>
        <feMergeNode/>
        <feMergeNode in="SourceGraphic"/>
      </feMerge>
    </filter>
  </defs>

  <!-- Background -->
  <rect x="0" y="0" width="256" height="256" fill="#F8F9FA" rx="30"/>
  
  <!-- Sprint Board -->
  <g transform="translate(48, 48)" filter="url(#softShadow)">
    <!-- Board Background -->
    <rect x="0" y="0" width="160" height="160" fill="white" rx="15" 
          stroke="url(#sprintGradient)" stroke-width="4"/>
    
    <!-- Sprint Columns -->
    <line x1="53" y1="0" x2="53" y2="160" stroke="#E9ECEF" stroke-width="2"/>
    <line x1="106" y1="0" x2="106" y2="160" stroke="#E9ECEF" stroke-width="2"/>
    
    <!-- Task Cards -->
    <g>
      <!-- To Do -->
      <rect x="10" y="30" width="35" height="20" fill="#FF6B6B" rx="4"/>
      <rect x="10" y="60" width="35" height="20" fill="#FF6B6B" rx="4"/>
      
      <!-- In Progress -->
      <rect x="63" y="30" width="35" height="20" fill="#4ECDC4" rx="4"/>
      <rect x="63" y="60" width="35" height="20" fill="#4ECDC4" rx="4"/>
      
      <!-- Done -->
      <rect x="116" y="30" width="35" height="20" fill="#A8E6CF" rx="4"/>
      <rect x="116" y="60" width="35" height="20" fill="#A8E6CF" rx="4"/>
    </g>
    
    <!-- Column Headers -->
    <text x="27" y="20" font-family="Arial" font-size="12" fill="#495057" text-anchor="middle">TO DO</text>
    <text x="80" y="20" font-family="Arial" font-size="12" fill="#495057" text-anchor="middle">DOING</text>
    <text x="133" y="20" font-family="Arial" font-size="12" fill="#495057" text-anchor="middle">DONE</text>
  </g>
  
  <!-- Circular Progress Indicator -->
  <g transform="translate(128, 128)">
    <circle cx="0" cy="0" r="90" fill="none" stroke="#E9ECEF" stroke-width="8"/>
    <path d="M 0 -90 A 90 90 0 1 1 -90 0"
          fill="none" 
          stroke="url(#sprintGradient)" 
          stroke-width="8"
          stroke-linecap="round"/>
  </g>
  
  <!-- Sprint Number -->
  <g transform="translate(128, 228)">
    <text text-anchor="middle" 
          font-family="Arial Black, Arial Bold, Gadget, sans-serif" 
          font-size="24" 
          fill="#6C5CE7"
          font-weight="bold">SPRINT</text>
  </g>
</svg>